<svg width="142" height="44" viewBox="0 0 142 44" fill="none" xmlns="http://www.w3.org/2000/svg">
<rect width="142" height="44" rx="22" fill="url(#paint0_linear_70799_18)"/>
<path d="M40.8359 21.0469V21.5859C40.8359 22.4505 40.7188 23.2266 40.4844 23.9141C40.25 24.6016 39.9193 25.1875 39.4922 25.6719C39.0651 26.151 38.5547 26.5182 37.9609 26.7734C37.3724 27.0286 36.7188 27.1562 36 27.1562C35.2865 27.1562 34.6328 27.0286 34.0391 26.7734C33.4505 26.5182 32.9401 26.151 32.5078 25.6719C32.0755 25.1875 31.7396 24.6016 31.5 23.9141C31.2656 23.2266 31.1484 22.4505 31.1484 21.5859V21.0469C31.1484 20.1771 31.2656 19.401 31.5 18.7188C31.7344 18.0312 32.0651 17.4453 32.4922 16.9609C32.9245 16.4766 33.4349 16.1068 34.0234 15.8516C34.6172 15.5964 35.2708 15.4688 35.9844 15.4688C36.7031 15.4688 37.3568 15.5964 37.9453 15.8516C38.5391 16.1068 39.0495 16.4766 39.4766 16.9609C39.9089 17.4453 40.2422 18.0312 40.4766 18.7188C40.7161 19.401 40.8359 20.1771 40.8359 21.0469ZM38.4688 21.5859V21.0312C38.4688 20.4271 38.4141 19.8958 38.3047 19.4375C38.1953 18.9792 38.0339 18.5938 37.8203 18.2812C37.6068 17.9688 37.3464 17.7344 37.0391 17.5781C36.7318 17.4167 36.3802 17.3359 35.9844 17.3359C35.5885 17.3359 35.237 17.4167 34.9297 17.5781C34.6276 17.7344 34.3698 17.9688 34.1562 18.2812C33.9479 18.5938 33.7891 18.9792 33.6797 19.4375C33.5703 19.8958 33.5156 20.4271 33.5156 21.0312V21.5859C33.5156 22.1849 33.5703 22.7161 33.6797 23.1797C33.7891 23.638 33.9505 24.026 34.1641 24.3438C34.3776 24.6562 34.638 24.8932 34.9453 25.0547C35.2526 25.2161 35.6042 25.2969 36 25.2969C36.3958 25.2969 36.7474 25.2161 37.0547 25.0547C37.362 24.8932 37.6198 24.6562 37.8281 24.3438C38.0365 24.026 38.1953 23.638 38.3047 23.1797C38.4141 22.7161 38.4688 22.1849 38.4688 21.5859ZM46.6875 18.5469V27H44.4297V18.5469H46.6875ZM49.4062 18.5469V20.2891H41.75V18.5469H49.4062ZM56.2422 18.5469V20.3125H52.1484V18.5469H56.2422ZM52.7969 18.5469V27H50.5469V18.5469H52.7969ZM57.8828 18.5469V27H55.625V18.5469H57.8828ZM61.8672 20.1719V30.25H59.6172V18.5469H61.7031L61.8672 20.1719ZM67.2188 22.6797V22.8438C67.2188 23.4583 67.1458 24.0286 67 24.5547C66.8594 25.0807 66.651 25.5391 66.375 25.9297C66.099 26.3151 65.7552 26.6172 65.3438 26.8359C64.9375 27.0495 64.4688 27.1562 63.9375 27.1562C63.4219 27.1562 62.974 27.0521 62.5938 26.8438C62.2135 26.6354 61.8932 26.3438 61.6328 25.9688C61.3776 25.5885 61.1719 25.1484 61.0156 24.6484C60.8594 24.1484 60.7396 23.612 60.6562 23.0391V22.6094C60.7396 21.9948 60.8594 21.4323 61.0156 20.9219C61.1719 20.4062 61.3776 19.9609 61.6328 19.5859C61.8932 19.2057 62.2109 18.9115 62.5859 18.7031C62.9661 18.4948 63.4115 18.3906 63.9219 18.3906C64.4583 18.3906 64.9297 18.4922 65.3359 18.6953C65.7474 18.8984 66.0911 19.1901 66.3672 19.5703C66.6484 19.9505 66.8594 20.4036 67 20.9297C67.1458 21.4557 67.2188 22.0391 67.2188 22.6797ZM64.9609 22.8438V22.6797C64.9609 22.3203 64.9297 21.9896 64.8672 21.6875C64.8099 21.3802 64.7161 21.112 64.5859 20.8828C64.4609 20.6536 64.2943 20.4766 64.0859 20.3516C63.8828 20.2214 63.6354 20.1562 63.3438 20.1562C63.0365 20.1562 62.7734 20.2057 62.5547 20.3047C62.3411 20.4036 62.1667 20.5469 62.0312 20.7344C61.8958 20.9219 61.7943 21.1458 61.7266 21.4062C61.6589 21.6667 61.6172 21.9609 61.6016 22.2891V23.375C61.6276 23.7604 61.7005 24.1068 61.8203 24.4141C61.9401 24.7161 62.125 24.9557 62.375 25.1328C62.625 25.3099 62.9531 25.3984 63.3594 25.3984C63.6562 25.3984 63.9062 25.3333 64.1094 25.2031C64.3125 25.0677 64.4766 24.8828 64.6016 24.6484C64.7318 24.4141 64.8229 24.1432 64.875 23.8359C64.9323 23.5286 64.9609 23.1979 64.9609 22.8438ZM73.1797 25.0938V21.3281C73.1797 21.0573 73.1354 20.8255 73.0469 20.6328C72.9583 20.4349 72.8203 20.2812 72.6328 20.1719C72.4505 20.0625 72.2135 20.0078 71.9219 20.0078C71.6719 20.0078 71.4557 20.0521 71.2734 20.1406C71.0911 20.224 70.9505 20.3464 70.8516 20.5078C70.7526 20.6641 70.7031 20.849 70.7031 21.0625H68.4531C68.4531 20.7031 68.5365 20.362 68.7031 20.0391C68.8698 19.7161 69.112 19.4323 69.4297 19.1875C69.7474 18.9375 70.125 18.7422 70.5625 18.6016C71.0052 18.4609 71.5 18.3906 72.0469 18.3906C72.7031 18.3906 73.2865 18.5 73.7969 18.7188C74.3073 18.9375 74.7083 19.2656 75 19.7031C75.2969 20.1406 75.4453 20.6875 75.4453 21.3438V24.9609C75.4453 25.4245 75.474 25.8047 75.5312 26.1016C75.5885 26.3932 75.6719 26.6484 75.7812 26.8672V27H73.5078C73.3984 26.7708 73.3151 26.4844 73.2578 26.1406C73.2057 25.7917 73.1797 25.4427 73.1797 25.0938ZM73.4766 21.8516L73.4922 23.125H72.2344C71.9375 23.125 71.6797 23.1589 71.4609 23.2266C71.2422 23.2943 71.0625 23.3906 70.9219 23.5156C70.7812 23.6354 70.6771 23.776 70.6094 23.9375C70.5469 24.099 70.5156 24.276 70.5156 24.4688C70.5156 24.6615 70.5599 24.8359 70.6484 24.9922C70.737 25.1432 70.8646 25.263 71.0312 25.3516C71.1979 25.4349 71.3932 25.4766 71.6172 25.4766C71.9557 25.4766 72.25 25.4089 72.5 25.2734C72.75 25.138 72.9427 24.9714 73.0781 24.7734C73.2188 24.5755 73.2917 24.388 73.2969 24.2109L73.8906 25.1641C73.8073 25.3776 73.6927 25.599 73.5469 25.8281C73.4062 26.0573 73.2266 26.2734 73.0078 26.4766C72.7891 26.6745 72.526 26.8385 72.2188 26.9688C71.9115 27.0938 71.5469 27.1562 71.125 27.1562C70.5885 27.1562 70.1016 27.0495 69.6641 26.8359C69.2318 26.6172 68.888 26.3177 68.6328 25.9375C68.3828 25.5521 68.2578 25.1146 68.2578 24.625C68.2578 24.1823 68.3411 23.7891 68.5078 23.4453C68.6745 23.1016 68.9193 22.8125 69.2422 22.5781C69.5703 22.3385 69.9792 22.1589 70.4688 22.0391C70.9583 21.9141 71.526 21.8516 72.1719 21.8516H73.4766ZM81.3906 23.4688H78.7422L78.7266 21.9922H80.9141C81.2057 21.9922 81.4427 21.9635 81.625 21.9062C81.8073 21.8438 81.9401 21.7526 82.0234 21.6328C82.112 21.5078 82.1562 21.3568 82.1562 21.1797C82.1562 21.0234 82.1276 20.8906 82.0703 20.7812C82.0182 20.6667 81.9375 20.5729 81.8281 20.5C81.7188 20.4271 81.5807 20.375 81.4141 20.3438C81.2526 20.3073 81.0625 20.2891 80.8438 20.2891H79.5781V27H77.3281V18.5469H80.8438C81.3958 18.5469 81.8906 18.5964 82.3281 18.6953C82.7656 18.7891 83.138 18.9323 83.4453 19.125C83.7578 19.3177 83.9948 19.5625 84.1562 19.8594C84.3229 20.151 84.4062 20.4974 84.4062 20.8984C84.4062 21.1589 84.3464 21.4036 84.2266 21.6328C84.112 21.862 83.9401 22.0651 83.7109 22.2422C83.4818 22.4193 83.1979 22.5651 82.8594 22.6797C82.526 22.7891 82.1406 22.8568 81.7031 22.8828L81.3906 23.4688ZM81.3906 27H78.1875L78.9609 25.2578H81.3906C81.6667 25.2578 81.8932 25.224 82.0703 25.1562C82.2474 25.0885 82.3776 24.9896 82.4609 24.8594C82.5495 24.724 82.5938 24.5625 82.5938 24.375C82.5938 24.1927 82.5547 24.0339 82.4766 23.8984C82.3984 23.763 82.2708 23.6589 82.0938 23.5859C81.9219 23.5078 81.6875 23.4688 81.3906 23.4688H79.2891L79.3047 21.9922H81.6953L82.2422 22.5859C82.8359 22.6224 83.3255 22.7344 83.7109 22.9219C84.0964 23.1094 84.3802 23.349 84.5625 23.6406C84.75 23.9271 84.8438 24.2422 84.8438 24.5859C84.8438 24.987 84.7682 25.3385 84.6172 25.6406C84.4661 25.9427 84.2422 26.1953 83.9453 26.3984C83.6536 26.5964 83.2943 26.7474 82.8672 26.8516C82.4401 26.9505 81.9479 27 81.3906 27ZM88.4688 23.8594L91.3047 18.5469H93.5547V27H91.3047V21.6797L88.4688 27H86.2188V18.5469H88.4688V23.8594ZM99.5938 18.5469V27H97.3359V18.5469H99.5938ZM102.312 18.5469V20.2891H94.6562V18.5469H102.312ZM105.016 21.0547H107.469C108.24 21.0547 108.896 21.1823 109.438 21.4375C109.984 21.6875 110.401 22.0365 110.688 22.4844C110.979 22.9323 111.125 23.4505 111.125 24.0391C111.125 24.4661 111.042 24.862 110.875 25.2266C110.714 25.5859 110.477 25.8984 110.164 26.1641C109.852 26.4297 109.469 26.6354 109.016 26.7812C108.562 26.9271 108.047 27 107.469 27H103.609V18.5469H105.867V25.25H107.469C107.807 25.25 108.078 25.1953 108.281 25.0859C108.49 24.9714 108.641 24.8229 108.734 24.6406C108.833 24.4583 108.883 24.2604 108.883 24.0469C108.883 23.8229 108.833 23.6198 108.734 23.4375C108.641 23.25 108.49 23.099 108.281 22.9844C108.078 22.8698 107.807 22.8125 107.469 22.8125H105.016V21.0547Z" fill="white"/>
<defs>
<linearGradient id="paint0_linear_70799_18" x1="17.2248" y1="1.49591e-05" x2="135.591" y2="31.942" gradientUnits="userSpaceOnUse">
<stop stop-color="#DF5950"/>
<stop offset="1" stop-color="#451046"/>
</linearGradient>
</defs>
</svg>
