<svg width="188" height="44" viewBox="0 0 188 44" fill="none" xmlns="http://www.w3.org/2000/svg">
<rect width="188" height="44" rx="22" fill="url(#paint0_linear_10099_103)"/>
<path d="M40.8359 21.0469V21.5859C40.8359 22.4505 40.7188 23.2266 40.4844 23.9141C40.25 24.6016 39.9193 25.1875 39.4922 25.6719C39.0651 26.151 38.5547 26.5182 37.9609 26.7734C37.3724 27.0286 36.7188 27.1562 36 27.1562C35.2865 27.1562 34.6328 27.0286 34.0391 26.7734C33.4505 26.5182 32.9401 26.151 32.5078 25.6719C32.0755 25.1875 31.7396 24.6016 31.5 23.9141C31.2656 23.2266 31.1484 22.4505 31.1484 21.5859V21.0469C31.1484 20.1771 31.2656 19.401 31.5 18.7188C31.7344 18.0312 32.0651 17.4453 32.4922 16.9609C32.9245 16.4766 33.4349 16.1068 34.0234 15.8516C34.6172 15.5964 35.2708 15.4688 35.9844 15.4688C36.7031 15.4688 37.3568 15.5964 37.9453 15.8516C38.5391 16.1068 39.0495 16.4766 39.4766 16.9609C39.9089 17.4453 40.2422 18.0312 40.4766 18.7188C40.7161 19.401 40.8359 20.1771 40.8359 21.0469ZM38.4688 21.5859V21.0312C38.4688 20.4271 38.4141 19.8958 38.3047 19.4375C38.1953 18.9792 38.0339 18.5938 37.8203 18.2812C37.6068 17.9688 37.3464 17.7344 37.0391 17.5781C36.7318 17.4167 36.3802 17.3359 35.9844 17.3359C35.5885 17.3359 35.237 17.4167 34.9297 17.5781C34.6276 17.7344 34.3698 17.9688 34.1562 18.2812C33.9479 18.5938 33.7891 18.9792 33.6797 19.4375C33.5703 19.8958 33.5156 20.4271 33.5156 21.0312V21.5859C33.5156 22.1849 33.5703 22.7161 33.6797 23.1797C33.7891 23.638 33.9505 24.026 34.1641 24.3438C34.3776 24.6562 34.638 24.8932 34.9453 25.0547C35.2526 25.2161 35.6042 25.2969 36 25.2969C36.3958 25.2969 36.7474 25.2161 37.0547 25.0547C37.362 24.8932 37.6198 24.6562 37.8281 24.3438C38.0365 24.026 38.1953 23.638 38.3047 23.1797C38.4141 22.7161 38.4688 22.1849 38.4688 21.5859ZM45.875 25.3984C46.151 25.3984 46.3958 25.3464 46.6094 25.2422C46.8229 25.1328 46.9896 24.9818 47.1094 24.7891C47.2344 24.5911 47.2995 24.3594 47.3047 24.0938H49.4219C49.4167 24.6875 49.2578 25.2161 48.9453 25.6797C48.6328 26.138 48.2135 26.5 47.6875 26.7656C47.1615 27.026 46.5729 27.1562 45.9219 27.1562C45.2656 27.1562 44.6927 27.0469 44.2031 26.8281C43.7188 26.6094 43.3151 26.3073 42.9922 25.9219C42.6693 25.5312 42.4271 25.0781 42.2656 24.5625C42.1042 24.0417 42.0234 23.4844 42.0234 22.8906V22.6641C42.0234 22.0651 42.1042 21.5078 42.2656 20.9922C42.4271 20.4714 42.6693 20.0182 42.9922 19.6328C43.3151 19.2422 43.7188 18.9375 44.2031 18.7188C44.6875 18.5 45.2552 18.3906 45.9062 18.3906C46.599 18.3906 47.2057 18.5234 47.7266 18.7891C48.2526 19.0547 48.6641 19.4349 48.9609 19.9297C49.263 20.4193 49.4167 21 49.4219 21.6719H47.3047C47.2995 21.3906 47.2396 21.1354 47.125 20.9062C47.0156 20.6771 46.8542 20.4948 46.6406 20.3594C46.4323 20.2188 46.1745 20.1484 45.8672 20.1484C45.5391 20.1484 45.2708 20.2188 45.0625 20.3594C44.8542 20.4948 44.6927 20.6823 44.5781 20.9219C44.4635 21.1562 44.3828 21.4245 44.3359 21.7266C44.2943 22.0234 44.2734 22.3359 44.2734 22.6641V22.8906C44.2734 23.2188 44.2943 23.5339 44.3359 23.8359C44.3776 24.138 44.4557 24.4062 44.5703 24.6406C44.6901 24.875 44.8542 25.0599 45.0625 25.1953C45.2708 25.3307 45.5417 25.3984 45.875 25.3984ZM55.0312 18.5469V27H52.7734V18.5469H55.0312ZM57.75 18.5469V20.2891H50.0938V18.5469H57.75ZM63.3359 25.0938V21.3281C63.3359 21.0573 63.2917 20.8255 63.2031 20.6328C63.1146 20.4349 62.9766 20.2812 62.7891 20.1719C62.6068 20.0625 62.3698 20.0078 62.0781 20.0078C61.8281 20.0078 61.612 20.0521 61.4297 20.1406C61.2474 20.224 61.1068 20.3464 61.0078 20.5078C60.9089 20.6641 60.8594 20.849 60.8594 21.0625H58.6094C58.6094 20.7031 58.6927 20.362 58.8594 20.0391C59.026 19.7161 59.2682 19.4323 59.5859 19.1875C59.9036 18.9375 60.2812 18.7422 60.7188 18.6016C61.1615 18.4609 61.6562 18.3906 62.2031 18.3906C62.8594 18.3906 63.4427 18.5 63.9531 18.7188C64.4635 18.9375 64.8646 19.2656 65.1562 19.7031C65.4531 20.1406 65.6016 20.6875 65.6016 21.3438V24.9609C65.6016 25.4245 65.6302 25.8047 65.6875 26.1016C65.7448 26.3932 65.8281 26.6484 65.9375 26.8672V27H63.6641C63.5547 26.7708 63.4714 26.4844 63.4141 26.1406C63.362 25.7917 63.3359 25.4427 63.3359 25.0938ZM63.6328 21.8516L63.6484 23.125H62.3906C62.0938 23.125 61.8359 23.1589 61.6172 23.2266C61.3984 23.2943 61.2188 23.3906 61.0781 23.5156C60.9375 23.6354 60.8333 23.776 60.7656 23.9375C60.7031 24.099 60.6719 24.276 60.6719 24.4688C60.6719 24.6615 60.7161 24.8359 60.8047 24.9922C60.8932 25.1432 61.0208 25.263 61.1875 25.3516C61.3542 25.4349 61.5495 25.4766 61.7734 25.4766C62.112 25.4766 62.4062 25.4089 62.6562 25.2734C62.9062 25.138 63.099 24.9714 63.2344 24.7734C63.375 24.5755 63.4479 24.388 63.4531 24.2109L64.0469 25.1641C63.9635 25.3776 63.849 25.599 63.7031 25.8281C63.5625 26.0573 63.3828 26.2734 63.1641 26.4766C62.9453 26.6745 62.6823 26.8385 62.375 26.9688C62.0677 27.0938 61.7031 27.1562 61.2812 27.1562C60.7448 27.1562 60.2578 27.0495 59.8203 26.8359C59.388 26.6172 59.0443 26.3177 58.7891 25.9375C58.5391 25.5521 58.4141 25.1146 58.4141 24.625C58.4141 24.1823 58.4974 23.7891 58.6641 23.4453C58.8307 23.1016 59.0755 22.8125 59.3984 22.5781C59.7266 22.3385 60.1354 22.1589 60.625 22.0391C61.1146 21.9141 61.6823 21.8516 62.3281 21.8516H63.6328ZM71.5469 23.4688H68.8984L68.8828 21.9922H71.0703C71.362 21.9922 71.599 21.9635 71.7812 21.9062C71.9635 21.8438 72.0964 21.7526 72.1797 21.6328C72.2682 21.5078 72.3125 21.3568 72.3125 21.1797C72.3125 21.0234 72.2839 20.8906 72.2266 20.7812C72.1745 20.6667 72.0938 20.5729 71.9844 20.5C71.875 20.4271 71.737 20.375 71.5703 20.3438C71.4089 20.3073 71.2188 20.2891 71 20.2891H69.7344V27H67.4844V18.5469H71C71.5521 18.5469 72.0469 18.5964 72.4844 18.6953C72.9219 18.7891 73.2943 18.9323 73.6016 19.125C73.9141 19.3177 74.151 19.5625 74.3125 19.8594C74.4792 20.151 74.5625 20.4974 74.5625 20.8984C74.5625 21.1589 74.5026 21.4036 74.3828 21.6328C74.2682 21.862 74.0964 22.0651 73.8672 22.2422C73.638 22.4193 73.3542 22.5651 73.0156 22.6797C72.6823 22.7891 72.2969 22.8568 71.8594 22.8828L71.5469 23.4688ZM71.5469 27H68.3438L69.1172 25.2578H71.5469C71.8229 25.2578 72.0495 25.224 72.2266 25.1562C72.4036 25.0885 72.5339 24.9896 72.6172 24.8594C72.7057 24.724 72.75 24.5625 72.75 24.375C72.75 24.1927 72.7109 24.0339 72.6328 23.8984C72.5547 23.763 72.4271 23.6589 72.25 23.5859C72.0781 23.5078 71.8438 23.4688 71.5469 23.4688H69.4453L69.4609 21.9922H71.8516L72.3984 22.5859C72.9922 22.6224 73.4818 22.7344 73.8672 22.9219C74.2526 23.1094 74.5365 23.349 74.7188 23.6406C74.9062 23.9271 75 24.2422 75 24.5859C75 24.987 74.9245 25.3385 74.7734 25.6406C74.6224 25.9427 74.3984 26.1953 74.1016 26.3984C73.8099 26.5964 73.4505 26.7474 73.0234 26.8516C72.5964 26.9505 72.1042 27 71.5469 27ZM78.625 23.8594L81.4609 18.5469H83.7109V27H81.4609V21.6797L78.625 27H76.375V18.5469H78.625V23.8594ZM89.75 18.5469V27H87.4922V18.5469H89.75ZM92.4688 18.5469V20.2891H84.8125V18.5469H92.4688ZM95.1719 21.0547H97.625C98.3958 21.0547 99.0521 21.1823 99.5938 21.4375C100.141 21.6875 100.557 22.0365 100.844 22.4844C101.135 22.9323 101.281 23.4505 101.281 24.0391C101.281 24.4661 101.198 24.862 101.031 25.2266C100.87 25.5859 100.633 25.8984 100.32 26.1641C100.008 26.4297 99.625 26.6354 99.1719 26.7812C98.7188 26.9271 98.2031 27 97.625 27H93.7656V18.5469H96.0234V25.25H97.625C97.9635 25.25 98.2344 25.1953 98.4375 25.0859C98.6458 24.9714 98.7969 24.8229 98.8906 24.6406C98.9896 24.4583 99.0391 24.2604 99.0391 24.0469C99.0391 23.8229 98.9896 23.6198 98.8906 23.4375C98.7969 23.25 98.6458 23.099 98.4375 22.9844C98.2344 22.8698 97.9635 22.8125 97.625 22.8125H95.1719V21.0547ZM110.305 22.9688H108.633V21.9609H109.828C110.109 21.9609 110.333 21.9219 110.5 21.8438C110.672 21.7656 110.794 21.6562 110.867 21.5156C110.945 21.3698 110.984 21.2057 110.984 21.0234C110.984 20.862 110.951 20.7083 110.883 20.5625C110.82 20.4115 110.706 20.2891 110.539 20.1953C110.378 20.0964 110.148 20.0469 109.852 20.0469C109.607 20.0469 109.388 20.0833 109.195 20.1562C109.008 20.2292 108.859 20.3359 108.75 20.4766C108.646 20.612 108.594 20.776 108.594 20.9688H106.336C106.336 20.4323 106.49 19.974 106.797 19.5938C107.104 19.2083 107.516 18.9141 108.031 18.7109C108.547 18.5026 109.112 18.3984 109.727 18.3984C110.263 18.3984 110.747 18.4531 111.18 18.5625C111.612 18.6667 111.982 18.8229 112.289 19.0312C112.596 19.2396 112.831 19.4974 112.992 19.8047C113.159 20.1068 113.242 20.4583 113.242 20.8594C113.242 21.1458 113.174 21.4167 113.039 21.6719C112.904 21.9271 112.708 22.1536 112.453 22.3516C112.198 22.5443 111.888 22.6953 111.523 22.8047C111.164 22.9141 110.758 22.9688 110.305 22.9688ZM108.633 22.4062H110.305C110.81 22.4062 111.253 22.4557 111.633 22.5547C112.018 22.6484 112.341 22.7891 112.602 22.9766C112.862 23.1641 113.057 23.3958 113.188 23.6719C113.323 23.9427 113.391 24.2552 113.391 24.6094C113.391 25.0104 113.302 25.3698 113.125 25.6875C112.948 26 112.695 26.2656 112.367 26.4844C112.039 26.7031 111.651 26.8698 111.203 26.9844C110.755 27.099 110.263 27.1562 109.727 27.1562C109.154 27.1562 108.596 27.0625 108.055 26.875C107.513 26.6875 107.068 26.3984 106.719 26.0078C106.375 25.6172 106.203 25.1146 106.203 24.5H108.461C108.461 24.6771 108.513 24.8438 108.617 25C108.721 25.1562 108.878 25.2812 109.086 25.375C109.294 25.4635 109.552 25.5078 109.859 25.5078C110.167 25.5078 110.414 25.4583 110.602 25.3594C110.789 25.2604 110.924 25.1302 111.008 24.9688C111.096 24.8021 111.141 24.6302 111.141 24.4531C111.141 24.2031 111.091 24 110.992 23.8438C110.898 23.6875 110.753 23.5729 110.555 23.5C110.362 23.4271 110.12 23.3906 109.828 23.3906H108.633V22.4062ZM119.336 25.0938V21.3281C119.336 21.0573 119.292 20.8255 119.203 20.6328C119.115 20.4349 118.977 20.2812 118.789 20.1719C118.607 20.0625 118.37 20.0078 118.078 20.0078C117.828 20.0078 117.612 20.0521 117.43 20.1406C117.247 20.224 117.107 20.3464 117.008 20.5078C116.909 20.6641 116.859 20.849 116.859 21.0625H114.609C114.609 20.7031 114.693 20.362 114.859 20.0391C115.026 19.7161 115.268 19.4323 115.586 19.1875C115.904 18.9375 116.281 18.7422 116.719 18.6016C117.161 18.4609 117.656 18.3906 118.203 18.3906C118.859 18.3906 119.443 18.5 119.953 18.7188C120.464 18.9375 120.865 19.2656 121.156 19.7031C121.453 20.1406 121.602 20.6875 121.602 21.3438V24.9609C121.602 25.4245 121.63 25.8047 121.688 26.1016C121.745 26.3932 121.828 26.6484 121.938 26.8672V27H119.664C119.555 26.7708 119.471 26.4844 119.414 26.1406C119.362 25.7917 119.336 25.4427 119.336 25.0938ZM119.633 21.8516L119.648 23.125H118.391C118.094 23.125 117.836 23.1589 117.617 23.2266C117.398 23.2943 117.219 23.3906 117.078 23.5156C116.938 23.6354 116.833 23.776 116.766 23.9375C116.703 24.099 116.672 24.276 116.672 24.4688C116.672 24.6615 116.716 24.8359 116.805 24.9922C116.893 25.1432 117.021 25.263 117.188 25.3516C117.354 25.4349 117.549 25.4766 117.773 25.4766C118.112 25.4766 118.406 25.4089 118.656 25.2734C118.906 25.138 119.099 24.9714 119.234 24.7734C119.375 24.5755 119.448 24.388 119.453 24.2109L120.047 25.1641C119.964 25.3776 119.849 25.599 119.703 25.8281C119.562 26.0573 119.383 26.2734 119.164 26.4766C118.945 26.6745 118.682 26.8385 118.375 26.9688C118.068 27.0938 117.703 27.1562 117.281 27.1562C116.745 27.1562 116.258 27.0495 115.82 26.8359C115.388 26.6172 115.044 26.3177 114.789 25.9375C114.539 25.5521 114.414 25.1146 114.414 24.625C114.414 24.1823 114.497 23.7891 114.664 23.4453C114.831 23.1016 115.076 22.8125 115.398 22.5781C115.727 22.3385 116.135 22.1589 116.625 22.0391C117.115 21.9141 117.682 21.8516 118.328 21.8516H119.633ZM125.156 22.7812H127.438L125.086 27H122.812L125.156 22.7812ZM126.672 18.5469H130.383V27H128.133V20.2891H126.672C126.365 20.2891 126.109 20.3464 125.906 20.4609C125.703 20.5703 125.552 20.7135 125.453 20.8906C125.359 21.0625 125.312 21.2396 125.312 21.4219C125.312 21.599 125.359 21.7708 125.453 21.9375C125.547 22.1042 125.693 22.2422 125.891 22.3516C126.089 22.4609 126.336 22.5156 126.633 22.5156H128.969V24.0469H126.633C126.076 24.0469 125.576 23.9792 125.133 23.8438C124.695 23.7083 124.32 23.5208 124.008 23.2812C123.701 23.0365 123.464 22.7526 123.297 22.4297C123.135 22.1016 123.055 21.7422 123.055 21.3516C123.055 20.9453 123.138 20.5729 123.305 20.2344C123.471 19.8958 123.711 19.599 124.023 19.3438C124.336 19.0885 124.714 18.8932 125.156 18.7578C125.604 18.6172 126.109 18.5469 126.672 18.5469ZM136.5 23.4688H133.852L133.836 21.9922H136.023C136.315 21.9922 136.552 21.9635 136.734 21.9062C136.917 21.8438 137.049 21.7526 137.133 21.6328C137.221 21.5078 137.266 21.3568 137.266 21.1797C137.266 21.0234 137.237 20.8906 137.18 20.7812C137.128 20.6667 137.047 20.5729 136.938 20.5C136.828 20.4271 136.69 20.375 136.523 20.3438C136.362 20.3073 136.172 20.2891 135.953 20.2891H134.688V27H132.438V18.5469H135.953C136.505 18.5469 137 18.5964 137.438 18.6953C137.875 18.7891 138.247 18.9323 138.555 19.125C138.867 19.3177 139.104 19.5625 139.266 19.8594C139.432 20.151 139.516 20.4974 139.516 20.8984C139.516 21.1589 139.456 21.4036 139.336 21.6328C139.221 21.862 139.049 22.0651 138.82 22.2422C138.591 22.4193 138.307 22.5651 137.969 22.6797C137.635 22.7891 137.25 22.8568 136.812 22.8828L136.5 23.4688ZM136.5 27H133.297L134.07 25.2578H136.5C136.776 25.2578 137.003 25.224 137.18 25.1562C137.357 25.0885 137.487 24.9896 137.57 24.8594C137.659 24.724 137.703 24.5625 137.703 24.375C137.703 24.1927 137.664 24.0339 137.586 23.8984C137.508 23.763 137.38 23.6589 137.203 23.5859C137.031 23.5078 136.797 23.4688 136.5 23.4688H134.398L134.414 21.9922H136.805L137.352 22.5859C137.945 22.6224 138.435 22.7344 138.82 22.9219C139.206 23.1094 139.49 23.349 139.672 23.6406C139.859 23.9271 139.953 24.2422 139.953 24.5859C139.953 24.987 139.878 25.3385 139.727 25.6406C139.576 25.9427 139.352 26.1953 139.055 26.3984C138.763 26.5964 138.404 26.7474 137.977 26.8516C137.549 26.9505 137.057 27 136.5 27ZM143.734 18.5469V27H141.484V18.5469H143.734ZM149.227 18.5469L145.586 23.8359H143.336L143.062 21.7578H144.555L146.375 18.5469H149.227ZM146.477 27L144.398 23.4297L146.359 22.3438L149.492 27H146.477ZM152.844 26.0469L155.086 18.5469H157.5L154.102 28.2734C154.029 28.487 153.93 28.7161 153.805 28.9609C153.685 29.2057 153.521 29.4375 153.312 29.6562C153.109 29.8802 152.852 30.0625 152.539 30.2031C152.232 30.3438 151.854 30.4141 151.406 30.4141C151.193 30.4141 151.018 30.401 150.883 30.375C150.747 30.349 150.586 30.3125 150.398 30.2656V28.6172C150.456 28.6172 150.516 28.6172 150.578 28.6172C150.641 28.6224 150.701 28.625 150.758 28.625C151.055 28.625 151.297 28.5911 151.484 28.5234C151.672 28.4557 151.823 28.3516 151.938 28.2109C152.052 28.0755 152.143 27.8984 152.211 27.6797L152.844 26.0469ZM151.906 18.5469L153.742 24.6719L154.062 27.0547L152.531 27.2188L149.492 18.5469H151.906Z" fill="white"/>
<defs>
<linearGradient id="paint0_linear_10099_103" x1="22.8047" y1="1.49591e-05" x2="171.896" y2="53.2668" gradientUnits="userSpaceOnUse">
<stop stop-color="#DF5950"/>
<stop offset="1" stop-color="#451046"/>
</linearGradient>
</defs>
</svg>
